<?xml version="1.0" encoding="utf-8"?>
<svg version="1.1" id="Layer_1" xmlns="http://www.w3.org/2000/svg" xmlns:xlink="http://www.w3.org/1999/xlink" x="0px" y="0px"
	 viewBox="0 0 5000 473.7" style="enable-background:new 0 0 5000 473.7;" xml:space="preserve">
<g>
	<path d="M2701.9,86.1c-65.5,51.2-88.3,61.8-102.4,47.4c-16.5-16.9-17.4-14.4,27.8-81.3c9.5-14.1,4.3-8.8,15.9-27.9
		c17.5-28.8,29.3-21-180.7-23.5c-124.1-1.5-116.9-8.6-67.7,67.1c31.2,48.1,27.8,43.7,2.7,72.8c-26.1-14.5-14-10-82-56.2
		c-32-21.7-32.7-21.8-34.6-4.8c-2,16.9-2.3,309.1-0.3,312.3c3.1,5.1,15.5-2.7,64.2-40.4c38.4-29.7,45.4-29.5,64.6,2.5
		c1.9,3.1-4.8,16.5-34.9,70.4c-27.7,49.4-33.7,43.6,47.7,46.2c91.3,2.8,216.6,4.1,219.7,2.2c1.5-0.9-0.9-6.4-5.7-13.2
		c-13.4-19.1-44.1-70.2-55.5-87.2c-7.2-10.8-7.4-9.8,4.7-24.8c14.4-17.7,6.5-20.6,82.6,29.9c47.8,31.7,48.5,31.9,48.6,13.2
		C2718,57.4,2726.1,67.1,2701.9,86.1z M2701.1,381.3c-5.1,6.1-3.4,6.2-104.2-61.7c-7.1,8.1-19.6,22.7-27.7,29.9
		c-9.5,8.5-13.8-0.9,37,80.3c27.5,43.9,13.8,31.9-132.2,31.6c-71.9-0.2-105.7-1.8-109.3-5.4c-2.6-2.6,2.9-9.1,53.5-99.4
		c-35.4-42.5-35-43.8-53.4-28.1c-12.4,10.6-33.4,26.6-61,46.7c-21.5,15.6-19.9,24.8-19.3-113c0.6-138.6,2.1-183.6,6.1-184.9
		c3.1-1,46,27.2,79.2,52.1c26.5,19.9,26.4,19.9,39.5,5.2c21.4-24.1,21.6-23.5-38.8-115.2c-8.3-12.6-4.8-13.4,52-12.5
		c236.6,3.8,225.9-6.2,200.1,32.1c-20.7,30.7-32.1,51.3-44,67.6c-4.6,6.3-7.6,12.6-6.7,14c3.6,5.7,36.5,40.4,38.3,40.4
		c2.7,0,28.9-17.5,36.2-24.2c8-7.3,3.3-0.8,30.7-20.4c24.6-17.7,28.5-18.4,30.9-5.7C2711.8,131.2,2705.6,375.8,2701.1,381.3z"/>
	<path d="M2684.7,119c-14.2,8.5-29.3,22.1-31.2,22.1c-1.5,0-40.3,25.9-42.2,27.2c-20.3-16.2-26.6-22.1-48.7-49.6
		c59.3-89.9,65.5-98.9,63.2-101.2c-2.2-2.2-249.7-3.8-249.7-1.6c0,0.5,57.2,95.6,57.5,96c-23.2,29.6-32.5,41.9-37.9,41.6
		c-5.1-0.3-55.2-33-68-44.5c-7.8-6.9-31.5-22.4-34.4-22.4c-2,0-0.7,8.8-1.2,157.5c-0.5,148.5-2.5,134.2,16.7,118.2
		c67.6-56.2,70.3-57.2,93.5-33.5c25.1,25.7,25.2,21.6-2.4,73.7c-13.1,24.8-23.8,45.9-23.8,47.1s11.5,2.2,25.5,2.4
		c149.2,1.9,212.7,6.4,209.4-2c-6.9-17.9-53.7-80.9-53.5-92.4c0.1-5.1,33.3-38.2,40-45.1c2.3,1.7,13.6,10,15.8,10
		c2.1,0,47.4,34.2,64.4,43.3c6.6,3.5,13.6,7.7,15.4,9.2c6.2,5.1,5.5,18.1,7.5-140.1C2702.6,72.3,2703.4,107.8,2684.7,119z
		 M2695.3,221.2c-2.1,121.7-0.2,159.2-9.9,143.6c-2.2-3.6-80.9-54.7-82.9-60.1c-3.5-9.2-14.1,8.6-37.3,31.4
		c-20.9,20.6-20.5,18.1-6.7,40.4c6,9.8,11.8,20.4,12.8,23.5c2.2,7.1,28.4,41.9,28.4,47.9c0,2.7-212.5,0.2-212.3-5.1
		c0.1-2.5,6.4-13.9,15.2-27.3c8.5-13,30.6-57,30.6-61c0-3.3-16.2-24-31.9-40.8c-19-20.4-12.4-29.6-35.2-8.7
		c-68,62.2-64.5,66.5-63.7-78.8c0.7-130.5,0.2-126.2,12.7-116c37.2,30.6,36.3,23.9,83.2,58.1c35.4-43.5,34.8-42.4,45.9-55.3
		c-36.7-71-48.2-81.5-48.2-86.1c0-3.5,210.6-1.8,214.1,1.7c3.7,3.7-32.2,60.4-53.1,83.9c-5.8,6.5-5.8,10.3,0.1,12.2
		c6,1.9,43.2,46.9,50.9,56c21.2-19.8,79.7-55.5,82.4-59.9C2696.4,111.4,2697,123.9,2695.3,221.2z"/>
	<g>
		<path d="M2268.6,129.3c-19-15-78.9,6.8-86.7,31.6c-1.8,5.8-11.3-0.4-209.2-6c-208.3-6-242.4-49.7-291.1-58.5
			c-4.5,33.5-6,40.1-2,47.7c7.9,15.4,8.1,15.3-41.9,13.5c-64.8-2.3-59.4-6.2-81.4-6.5c-40.1-0.4-140.6-29.9-183-53.6
			c-17.9-10-21.4-8.3-31.7-7.3c0,10.8-0.8,45.2,3.4,55.3c5.6,13.5-10.5,16.7-53.9,10.7c-37.6-5.2-120.9-6-189.3-46.1
			c-30.3-17.7-39.6-16.8-48.4-17.5c0,10.5-0.4,42.9,1.7,52.3c3,13.4,1,13.9-31.6,8.5c-44.7-7.5-92.2-19.1-137.7-33.9
			c-39.8-12.9-36.3-2.8-43.6-10.8c-16.2-17.9-29.6,24.4-15.9,50.1c3.1,5.8,0.4,6-16.5,1.2c-33.9-9.7-47.9,0.7-137.5-41.6
			c-47.4-22.4-45.3-3-45.3,49.3c-133.5-9.4-116.3-25.4-140.3-26.7c-9.9-0.5-19.3,5.7-21.4,15.6c-1.6,7.8-2.3,11.8-11.8,11.8
			c-21.7,0-44.1,23.7-48.5,9.7c-5.8-18.2-114.5-16.1-130.8-15.7c-70.6,1.6-218.6,21.2-235,23.5c-10.9,1.6-49.6,2-36.5,17.6
			c27.6,32.7,319,82.8,386.7,66.7c21.7-5.2,20.7,7.8,62.7,16.4c0,42.8-1.8,43,16.5,38.8c18.2-4.2,36.9-5.3,55.1-9.7
			c39.8-9.6,37.9-9.9,71.4-13.7c0,8.5-1,16.7,6.4,40c10.3,32.7,1.4,21.6,97.9-10.3c43.3-14.3,95.6-34.2,89.6-18.4
			c-2.3,6-2.1,11.3,0.9,33.7c3.5,25.8,24.1,20.2,42.1,13.7c90.2-32.9,138.7-43.1,152.5-48.4c6.7-2.6,14.7-2.2,19.7-2.2l-2.3,12.9
			c-2.6,14.3-3,53.3,13.5,56.4c33.3,6.2,66.9-28,154.8-46.9c12.2-2.6,26.7-6,32.2-7.4c36.9-9.7,100.3-13.6,96.8-6
			c-6.5,14.3-2.6,64.1,5.5,70.9c20.2,16.7,120.8-43.1,302.6-68.6c28.6-4,30-3.4,25.2,11.4c-6.9,21.2-9.3,64.3-3.9,70.8
			c19.4,23.4,150.2-86.6,459.3-83l65.7,0.8c15,31.1,21.4,44.1,33.4,56.6c13.6,14.1,36.9,26.3,55.4,29c7.3,1,14.3,1.7,15.7,1.4
			c10.7-2.1,4.9-58.5-6-58.5c-10.1,0-25.2-13.4-24.9-22.1c0.4-14.6,19.7-32.9,29.2-27.8c6,3.2,7.9,1.3,7.9-7.6c0-6.6-0.6-7-10.6-7.1
			c-75.7-0.6-97.2-113.2-27.5-144.4c14-6.3,33.1-9.7,38.5-6.8C2269.8,136.6,2273.1,132.8,2268.6,129.3z M400.2,202
			c-2.1,11.1-8.4,15.1-28.7,18.1c-42.6,6.4-319.6-1.8-355.3-16.5c-26.8-11,42.1-12.3,62.2-15.4c0.1,0,84.9-7.7,84.7-7.7
			c62.3-6.2-16-0.8,90.4-5.7C384.3,168.8,405.7,172.7,400.2,202z M1724.5,117.1c64,32.1,133.5,43,310.1,48.5
			c2.7,0.1,77,2.8,80.1,2.9c18.8,0.1-25.9,22.3-27.9,22.1c-84.1-11-245.7-4.9-366.1-69.8C1691.4,104.9,1694.4,102,1724.5,117.1z
			 M1693.5,166.8c46.7-0.7,50.1,0.2,41.3,10.3c-6.9,7.9-5,6-49.3,3.5c-115.2-6.5-110.1-9.3-158.3-17c-46.1-7.4-137.3-39-137.3-47.6
			C1390,103.3,1450.9,170.3,1693.5,166.8z M1083.6,109.4c152.8,89.4,336,36.6,307,62.1c-14.3,12.5-140.9,3.6-205-14.4
			C1082.3,128.1,1042.5,85.3,1083.6,109.4z M858.4,119.6c28.8,5.2,125.5,43.9,197.9,43.9c13.8,0,18.1,2.9,13.2,8.8
			c-7,8.4-78.3-3.6-144-24.2C880.7,134,838.1,115.9,858.4,119.6z M677.9,129.8c102.2,48.9,176.3,32.6,161.8,48.7
			c-7.8,8.7-6.6,2.8-42.2-2.6c-38.1-5.8-120.7-35.3-140.1-50C647.5,118.2,658,120.2,677.9,129.8z M651.5,129.5
			c50.8,32.1,157.7,58.9,161,58.9c10.9,0,21.1,3.2,21.1,6.5c0,1.9-1.6,3.4-3.6,3.4c-5.5,0-6.8,4.1-2.7,8.3
			c8.2,8.2,5.1,9.9-22.3,12.9c-37.5,4.1-139.8,51.8-151.5,70.6c-2.2,3.5-6.2,3.2-6.2-0.6c0.2-12.8,23-35.1,39-38.1
			c13-2.5,14.7-7.1,4.3-12c-25.7-12.2-4.7-24.7,40.1-24c29.7,0.5,38.2-2.2,38.2-12.4c0-12.2-22.8-16.3-46.7-8.3
			c-16.6,5.5-45.2,1.2-45.2-6.8c0-2.5,13.5-9.5,18.2-9.5c1.9,0,4.9-1.6,6.6-3.6c9.3-11.3-35.5,3.9-56.1-36.7
			C638.1,123,639,121.6,651.5,129.5z M515.6,158.8c13.3,6.8,44.7,11.7,93.5,14.7c52,3.2,51.7,3.1,48.1,9.9c-4.2,7.8-63.2,3.6-97.2-7
			c-4.6-1.4-15.1-3.9-23.3-5.5c-15.3-2.9-43.5-14.6-43.5-18C493.2,150.3,505,153.4,515.6,158.8z M432.7,230.5
			c-44-16.5-23.7-46.1,35.1-51.3c13.4-1.2,15.5-0.8,15.5,2.8c0,7.2,9.9-1.1,9.9,3.7c0,3.3-15.1,3-18.6,3.1c32.4,8.9,31,7.2,8.1,5.7
			c-31.7-2-12.2,6.1,8.7,6.2c8.7,0,9.9,5.7-1.2,4c-20.3-3.1-37.9-3.9-31.9-1.4c9.1,3.8,5.2,5-9.2,2.7c-18.2-2.9-16.1,0.5,2.6,4.3
			c8.5,1.7,18.9,4.1,23,5.2c9.9,2.8,9.7,2,0.7,2.3c-16,0.6-46.4-10.2-43.1-5c4.5,7.3,71,11.7,71,15.3c0,4.3-54.3-3.8-69.3-10.4
			c-11.5-5-16-4.4-10,1.3c3.4,3.2,42.3,12.9,58,14.4c4,0.4,7.7,2.1,8.3,3.9C492,243.1,454.2,238.5,432.7,230.5z M501.9,274.5
			c-29.5,17.3-28.8,8.3,1.8-23.4c10-10.3,19.6-14.7,38.8-17.8c46.6-7.5,50.8-29.8,7.1-37.3c-22.8-3.9-43.5-13.4-53.2-24.6
			c-13.8-15.7-12.2-16.1,13.5-3.2c25.1,12.7,34.1,11.6,71.5,21.2c42.5,11,69.8,6.7,61.1,17.1c-6.2,7.5,2.7,15.7-7,14.7
			c-9.7-1-95.6,23.9-114.4,33.2c-29.6,14.6-27.5,17.7,3.3,4.9c30.4-12.7,122.6-29.6,128.8-23.6C667.5,249.3,558.3,241.4,501.9,274.5
			z M821.7,241.6c-117.7,10.3-184.4,79.5-184.4,67.6c0-4.1,36.3-26.7,74.5-46.4c44-22.6,110.2-39.7,124.4-32.1
			C846.5,236.1,841.6,239.9,821.7,241.6z M836.1,297.6c6.7-21,24.3-37.7,45.6-43.2c22.2-5.8,27.5-13.6,9.6-14.1
			c-44.1-1.2-24-31,15.1-20.9c63.6,16.6,57.2-52.6-4-21.9c-9.4,4.7-21.7,2-31.5-6.9c-10.1-9.2-9-12.2,6.3-17.4
			c32.4-11.2-10.9-5.1-35-40.5c-9.6-14.1-7.5-18.3,4.4-8.9c8.2,6.4,63.9,30.7,81.4,35.5c96.5,26.2,154.6,27.5,130.1,33
			c-13.1,2.9-13.8,3.4-12.9,10.5c0.6,5.4,2.3,7.1,8.2,8.1c11.3,1.9,8.6,6.6-0.8,8.9c-11.5,2.9-24.2,3.5-36.1,5.9
			c-102.9,20.7-112.5,29.5-166.9,61.2C843.8,290.1,837.1,294.3,836.1,297.6z M873.7,285.2c-13.4,7.3-17.8,8.8-17.8,6.2
			c0-9.6,84.1-44.6,139.9-53.3c7.3-1.1,64.9-9.8,73.1-3.5c5,3.8,0.4,9.1-5.8,6.7C1042.6,233.4,914.4,263.2,873.7,285.2z
			 M1135.4,284.3c-48.5,17.9-85.1,51.3-77.1,38.3c0.8-1.3,0.4-3-1-3.8c-2.8-1.8,10.3-48.1,56.6-59.8c14.3-3.6,15.6-7.6,3.5-10.9
			c-9.6-2.6-30.6-14.8-30.6-17.9c0-1.9,10-5.5,13.5-4.8c1.3,0.2,4.6-0.7,7.5-2c7.7-3.7,28.4-5.1,37.1-2.4c22.7,6.9,60,1.2,66-10.2
			c11.6-21.6-24.9-28.8-65.3-12.8c-16.3,6.4-35.1,2.4-48.3-10.3c-12.8-12.3-6.1-19.5,21.6-23.2c16.5-2.2,15.8-4.2-2.4-7.7
			c-25.8-4.9-43.5-16.3-52.5-33.9c-8-15.7-5.2-18.7,7.8-8.3c24.4,19.6,83.4,45,124.2,53.6c49.8,10.5,47.6,14.4,161.3,19.6
			c35.9,1.7,45.9,4.8,32,10.1c-6.8,2.6-11.2,7.6-10.5,12.1c0.8,5.3-0.5,6.4,9.1,10c31.4,11.8-66.7,5.4-129.7,15.5
			c-55,8.8-72.9,12.5-83.2,17.1c-6.5,2.9-13.6,5.2-15.8,5.2c-12.9,0-88.9,42.3-96.3,53.6c-6.6,10-1.9,9.8,9.9-0.5
			c75.6-66.2,307.5-89.5,334.1-61C1242.5,255,1230.2,249.4,1135.4,284.3z M1359.8,331.8c0.7,3.3-12.8,11,0-22.4
			c14-36.4,45.7-49,85.1-49c30.7,0,38-6.8,11.8-10.9c-11-1.8-30.1-17.3-28.9-23.6c1.5-8.1,50.8-7.7,82.7,0.7
			c72.1,18.9,51.2-59.8-20.4-22.9c-15.2,7.8-72.8-7.3-72.8-19.1c0-1.9,29.7-6.7,39.3-6.4c15.1,0.5,12.4-5.3-3.5-7.6
			c-43-6.3-49.8-7.8-58-13.4c-4.8-3.3-10-6-11.4-6c-7.7,0-39.7-44.3-35.2-48.7c0.6-0.6,8.5,4,17.5,10.2
			c71.4,49.9,215.1,73.3,246.2,73.3c20.3,0,70.1,7.5,75.9,7c31.7-2.8,49.3,2.4,33.8,10c-11.5,5.6-10.6,19,1.4,20.7
			c13,1.9,6.7,6.5-9.6,7c-94.1,3-221.9,20.7-308.1,60.5C1392.5,297,1355.8,311.8,1359.8,331.8z M1659.6,255.8
			c-62,1.7-164.8,13.4-223,34.1c-23.3,8.3-54.1,25.2-54.1,22.4c0-9.8,36.6-20.1,43.1-22.4c102.3-36.7,81.3-25.4,136-35.7
			c19.7-3.5,40.3-9.3,60.4-9.3c88.2,0,108-3.8,111,1C1741,258.4,1727.9,254,1659.6,255.8z M1922.8,269c-42.4,2.3-58.4,7.8-99.4,17.5
			c-96.1,22.8-119.7,48.4-129.4,48.4c-3.9,0,8.2-28.3,15.4-36c10.6-11.4,20-36,71.5-36c31.8,0,40.7-5.9,13.6-8.9
			c-10.7-1.2-17.2-3.5-22.4-7.8c-12.8-10.8-10-14.9,17.1-25.5c10.5-4.1,32.3-1.7,44.7,5c22.4,12,51.9,4,49.3-13.3
			c-2.9-19.3-23.4-25.9-50.9-16.6c-21.5,7.2-43,6.7-59.3-1.4c-12.5-6.2-16.6-11-9.5-11c1.9,0,4.8-1.7,6.5-3.7
			c8.6-10.3,48.9-8.7-4.2-17.2c-33.1-5.3-45.9-11.6-60.6-29.7c-16.3-20.1-15.5-25.8,1.6-12.7c12,9.2,39.5,22.3,61.9,29.5
			c84.7,27.4,109.2,32.4,275.7,49.7c49.9,5.2,55.5,6.8,39,11.3c-11.8,3.2-15.4,12.5-4.9,12.6c7.6,0,16.8,2.6,16.8,4.7
			c0,0.9-26,3.1-57.8,4.8c-116.4,6.2-118.3,9.7-211.8,33.7c-38.4,9.9-43.6,11.7-74.5,26.6c-34.1,16.4-46,23.4-46,27
			c0,5.1,8.5,2.2,26.3-8.9c55.2-34.4,145.5-55.8,272.2-64.4c102.3-7,96-5.3,120.1,12.5C2023.8,261,1973.5,266.3,1922.8,269z
			 M2150.6,230.4c-13.7,3.8-17.1,3.3-22.5-3.6c-12.4-15.8-7.9-36,9-40.3C2165.4,179.4,2178.6,222.7,2150.6,230.4z"/>
		<path d="M1589.7,207.2c-2-5.2-4.1-5-7.9,1.1c-2.3,3.7-2.4,6.4-0.5,9.9C1587.2,229.3,1594.5,219.7,1589.7,207.2z"/>
		<path d="M1689.1,223.1c2.9,0,3.9-2.6,3.9-10.1c0-12.9-5.9-12.1-7,1C1685.4,220.9,1686.2,223.1,1689.1,223.1z"/>
		<path d="M1567.3,216.9c2.5,9.9,9.7,8.1,7.6-1.9C1570.7,194.9,1564.7,206.5,1567.3,216.9z"/>
		<path d="M1647.3,218.1c4,0,4.9-13.8,1-16.2C1644.5,199.7,1637.5,218.1,1647.3,218.1z"/>
		<path d="M1657.3,216.7c2,5.3,7.8,5,9-0.4c1.5-7.1-0.9-15.5-4.3-15.5C1658.2,200.7,1655.1,211.1,1657.3,216.7z"/>
		<path d="M1679.3,208.8c0.7-6.7-3.4-10.1-6.4-5.2c-2.6,4.1-2.9,15.6-0.6,17.9C1678.9,228,1678.6,215.9,1679.3,208.8z"/>
		<path d="M1628.6,217.1c8.3,9.9,9.4-15.1,2.3-15.1C1626.1,202,1624.6,212.3,1628.6,217.1z"/>
		<path d="M1621,213.2c0-7.2-1-9.9-3.7-9.9c-3.8,0-5.5,14.8-2.1,18.2C1619,225.3,1621,222.5,1621,213.2z"/>
		<path d="M1599.6,217.1c5.8,15,9.5-17.7,3.4-15.7C1599.5,202.5,1597.5,211.7,1599.6,217.1z"/>
		<path d="M2038.9,222.5c3.4-1.1,4.8-11.2,1.8-13.1c-3.1-1.9-8.1,5.9-6.4,10.1C2035.1,221.7,2037.2,223.1,2038.9,222.5z"/>
		<path d="M2068.1,215.7c0-4.8-1.3-7.5-3.6-7.5c-4.9,0-7,4-5.1,10C2061.9,226,2068.1,224.2,2068.1,215.7z"/>
		<path d="M2027.9,215c-1.5-15.2-9.3-4.1-6,4.5C2024.5,226.3,2028.7,223.2,2027.9,215z"/>
		<path d="M2011.2,220.6c4.9,0,5.3-10.1,0.6-14.8C2009.5,203.4,2000.3,220.6,2011.2,220.6z"/>
		<path d="M2001,214.4c0-9.7-3.4-11.3-7.5-3.6c-2,3.8-2,6,0.2,8.7C1998.5,225.4,2001,223.6,2001,214.4z"/>
		<path d="M2049.8,221.4c4.4,4.4,9.5-8.2,2.1-8.2C2048.2,213.2,2046.8,218.4,2049.8,221.4z"/>
		<path d="M2243.7,319c-10.5-2-13,3.5-4.2,9c8.3,5.2,0.8,7.9,15.1,8.7c10,0.6,10.1,0.5,9.3-7.5
			C2262.8,318.7,2260.8,322.2,2243.7,319z"/>
		<path d="M1977.1,216.6c2.3,9.1,9,8.5,9-0.8c0-8.2-2.4-10.7-7.3-7.7C1976.7,209.4,1976.1,212.4,1977.1,216.6z"/>
		<path d="M2150.5,206c-3.9,2.5-6.4,2.5-11.5,0.2c-11.9-5.4-15.8,0.3-7,10c6.2,6.8,18.2,5,23-3.5
			C2159.4,204.7,2157.4,201.7,2150.5,206z"/>
		<path d="M1962,216.6c3,7.8,9.6,4.8,8.7-4C1969.1,195,1959.7,210.6,1962,216.6z"/>
		<path d="M1908,213.2c4.2,0,4.8-6.4,0.8-8.9C1904.6,201.7,1898,213.2,1908,213.2z"/>
		<path d="M1948.2,216c2,7.5,8.1,5.5,8.1-2.7C1956.3,196.3,1945.8,206.9,1948.2,216z"/>
		<path d="M1920.6,216.7c5.1,13.3,9.3-11,2.2-11C1918.9,205.7,1918,210,1920.6,216.7z"/>
		<path d="M1934.1,217.1c4.8,5.8,7.3,4.1,7.3-5.1c0-9.7-3.4-11.3-7.5-3.6C1931.8,212.2,1931.9,214.4,1934.1,217.1z"/>
		<path d="M625.3,213.4c2.2,1.4,3.9,0.6,5-2.2c4.2-10.6-0.4-14.9-5.6-5.2C622.5,210.2,622.6,211.8,625.3,213.4z"/>
		<path d="M617.4,211.9c3.2-2,3.3-11.2,0.2-11.2C610.4,200.7,612.7,214.9,617.4,211.9z"/>
		<path d="M2256.6,115.1c11.3,7.4,12.7,7.5,12.7,0.6c-0.1-7.6-2.3-10.3-11.6-14C2242,95.3,2241.3,105,2256.6,115.1z"/>
		<path d="M782,206.1c2.2-2.2,2.2-3.6,0-5.8c-3.8-3.8-6.6-1-4.5,4.5C778.7,208,779.8,208.3,782,206.1z"/>
		<path d="M601.7,212.7c5.5-1.1,6.2-10.7,0.8-10.7C598.3,202,594.6,214.1,601.7,212.7z"/>
		<path d="M590.1,215.7c3.3,0,3.3-13.2,0-11.2C586.8,206.5,586.9,215.7,590.1,215.7z"/>
		<path d="M1025.7,206.9c-2.1-5.4,1.4-4.4,6.6,1.9c5.6,6.8,9.1,1.4,6.3-9.6c-1.6-6.3-1.8-6.4-6.6-2c-4.8,4.3-5,4.3-6.4-1
			c-3.7-14.2-10.8,2.6-5.9,11.8C1022.8,213.8,1027.9,212.8,1025.7,206.9z"/>
		<path d="M801.4,206.1c3.7,6.8,4.8,5.7,4.7-4.7c-0.1-8.6-0.3-9-3.6-4.6C800,200.1,799.7,202.7,801.4,206.1z"/>
		<path d="M2254.5,149.8c-44.4,8.2-67.8,50.6-49.4,89.7c5.7,12.2,11.4,15.8,43.1,27.2c18.5,6.7,19.4,6.8,18,3
			c-0.6-1.7-0.4-28.3,0.6-59C2268.8,148.4,2268.6,147.3,2254.5,149.8z"/>
		<path d="M796.3,203.2c0-2.6-1.1-5.4-2.5-6.2c-3.2-2-5.9,5-4,10.1C791.7,212.1,796.3,209.4,796.3,203.2z"/>
		<path d="M2236.3,116.9c5.2,5.8,9.6,1.9,5.9-5.1c-4.5-8.4-3.2-12.7,6.6-21.7c9.6-8.8,9.2-9.7-4.1-7
			C2231.6,85.7,2226.6,106.1,2236.3,116.9z"/>
		<path d="M369.2,191.4l-7.2,8.1c-285.7,1.8-274.7,2-279,4.1c5.2,2.6,33.9,2.3,48,2.8c72.5,2.6,144.3,10.9,216.8,3
			c35.1-3.8,45-5.6,45.6-9.1C396,186.6,379.2,180.3,369.2,191.4z"/>
		<path d="M1012.4,200.6c0-22.8-14.7,0.1-7.4,8.9C1009.5,215,1012.4,211.5,1012.4,200.6z"/>
		<path d="M818.6,204.6c0-21.7-13.5-2.5-7.5,4.7C816.1,215.4,818.6,213.8,818.6,204.6z"/>
		<path d="M982.9,210.7c8.5,0,2.2-6.8,2.2-19.2c0-5.6-7.5,0.3-7.5,10.9C977.6,209.2,978.6,210.7,982.9,210.7z"/>
		<path d="M1278.8,210.1c-1.6-12.6-1.8-12.9-7-10.9c-3.8,1.4-3.4,12.8,0.5,19.6C1276.2,225.1,1280.1,219.8,1278.8,210.1z"/>
		<path d="M1297.6,208.2c-0.2-6.2-1.6-9.9-3.6-9.9c-4.9,0-6.5,4.3-4.7,12.5C1291.9,222.2,1298.1,220.3,1297.6,208.2z"/>
		<path d="M1325.4,208.2c0-6.8-1.1-9.9-3.5-9.9c-4.6,0-6.8,6.4-5,13.9C1319.5,222.2,1325.4,219.5,1325.4,208.2z"/>
		<path d="M1310.5,209.4c0-10.3-6.9-17.5-7.7-8.1C1300.9,221.6,1310.5,229,1310.5,209.4z"/>
		<path d="M1237.5,214.2c2.9,7.5,8.4,4.3,8.4-4.8C1245.9,190.4,1234.9,207.6,1237.5,214.2z"/>
		<path d="M1255.6,213.8c8.3,21.8,10.1-16.7,4.8-15C1254.8,200.7,1252.9,206.8,1255.6,213.8z"/>
		<path d="M1705.9,203.2c-6.2,0-11,16-6.3,20.7C1707.6,231.9,1709.8,203.2,1705.9,203.2z"/>
		<path d="M970.5,209.2c3-1.9,1.3-14.2-2.2-15.3c-4.1-1.4-6.5,9-3,13.1C966.9,209,969.3,210,970.5,209.2z"/>
		<path d="M999.4,199.4c-0.2-11.2-2.9-13.3-7.6-5.8c-1.3,2.1-1.7,6.8-0.8,10.4C993.8,215.4,999.5,212.2,999.4,199.4z"/>
		<path d="M1355.2,206.8c0-11.3-1.7-13.3-7-8.1C1339.3,207.7,1355.2,235.5,1355.2,206.8z"/>
		<path d="M1340.3,208c0-10.7-0.7-12.5-4.3-11.8C1321.8,198.9,1340.3,240.7,1340.3,208z"/>
		<path d="M1367.8,220.6c2.5,0,5.6-19,3.6-22.3c-4.9-7.9-12.2,7.4-8,16.7C1364.7,218.1,1366.7,220.6,1367.8,220.6z"/>
	</g>
	<g>
		<path d="M2735.5,133.9c5.3-2.8,24.4,0.5,38.5,6.8c69.7,31.2,48.2,143.8-27.5,144.4c-9.9,0.1-10.6,0.5-10.6,7.1
			c0,9,1.9,10.8,7.9,7.6c9.6-5.1,28.8,13.2,29.2,27.8c0.3,8.7-14.8,22.1-24.9,22.1c-10.9,0-16.7,56.3-6,58.5
			c11.5,2.3,48.8-7.3,71.1-30.4c13.2-13.7,20.4-29.6,33.4-56.6l65.7-0.8c309-3.7,439.8,106.4,459.3,83c5.4-6.5,3-49.6-3.9-70.8
			c-4.8-14.8-3.5-15.4,25.2-11.4c104,14.6,131.6,26.6,154,32.6c41.4,11.2,134.7,47.6,148.6,36c8.2-6.8,12.1-56.6,5.5-70.9
			c-3.5-7.6,59.9-3.7,96.8,6c5.5,1.4,20,4.8,32.2,7.4c88.8,19.1,121.1,53.1,154.8,46.9c16.5-3.1,16.1-42.1,13.5-56.4L3996,310
			c4.9,0,13-0.4,19.7,2.2c8.3,3.2,53.2,15.3,81.5,23.9c74.3,22.7,108,48.1,113.1,10.8c3.1-22.4,3.2-27.7,0.9-33.7
			c-3.7-9.7,13.3-7.4,58.6,8c33.3,11.3,69.2,22.6,96.3,33.9c25,10.5,25.3,10.4,32.7-13.2c7.3-23.3,6.4-31.5,6.4-40
			c34.4,4,32.7,4.3,71.4,13.7c18.2,4.4,37,5.6,55.1,9.7c18.3,4.2,16.5,4,16.5-38.8c8.1-1.7,16.6-2.8,35.1-11.6
			c29.9-14.3,5.5,0.4,86.2-2.8c107.9-4.3,256.9-32.8,314.5-60.4c7.2-3.5,18.4-8.4,15.7-16.6c-1.9-5.7-13.9-6.9-66.3-13
			c-75.7-8.8-197.9-27.5-292.9-17.5c-9,0.9-41.5,1.6-45.2,13.3c-2.2,6.9-5,6.6-23.3-2.2c-30-14.5-33,0.3-37.1-19.3
			c-2.1-10-11.4-16.2-21.4-15.6c-24.7,1.3-5.4,17.2-140.3,26.7v-21.4c0.1-82.6-49.1-3.6-155.7,8.5c-31.3,3.5-49.4,14.9-43.6,4
			c13.7-25.7,0.3-68-15.9-50.1c-3,3.3-6.4,4.5-10.9,3.6c-13.5-2.6-69,24.2-170.4,41.1c-32.6,5.4-34.6,4.9-31.6-8.5
			c2.1-9.4,1.7-41.5,1.7-52.3c-43.1,3.3-73.6,48-187.5,58.2c-57.2,5.1-113.7,17.9-104.1-5.4c4.2-10.1,3.4-44.5,3.4-55.3
			c-10.4-1-13.8-2.7-31.7,7.3c-42.5,23.8-142.9,53.2-183,53.6c-22,0.2-16.5,4.2-81.4,6.5c-50,1.8-49.8,1.9-41.9-13.5
			c3.9-7.7,2.4-14.5-2-47.7c-7.6,1.4-15.2,2.1-33.7,10.5c-107.8,48.9-225,47.7-345.3,50.2c-62.6,1.3-119.2,10.3-121.3,3.9
			c-7.9-24.8-67.7-46.6-86.7-31.6C2727.1,132.8,2730.4,136.6,2735.5,133.9z M4746.7,174.8c107.6,5,27.4-0.6,90.4,5.7
			c110.5,11.1,174.2,11.9,146.9,23.1c-37.1,15.3-315.4,22.4-355.3,16.5c-20.3-3-26.6-7-28.7-18.1
			C4594.5,172.7,4615.9,168.8,4746.7,174.8z M3279.5,120.7c-120.4,64.9-282.1,58.9-366.1,69.8c-1.9,0.3-46.9-22-27.9-22.1
			c3.1,0,77.4-2.8,80.1-2.9c176.6-5.5,246.1-16.3,310.1-48.5C3305.8,102,3308.8,104.9,3279.5,120.7z M3610.3,116
			c0,8.5-91.2,40.1-137.3,47.6c-16.7,2.7-35.8,6-42.3,7.4c-25.6,5.3-146.8,11.2-155.9,12.1c-2.1,0.2-6.4-2.5-9.4-5.9
			c-8.8-10.1-5.4-10.9,41.3-10.3C3551.5,170.3,3610.3,102.9,3610.3,116z M3814.6,157.1c-64.1,18-190.7,26.9-205,14.4
			c-29.1-25.5,154.2,27.3,307-62.1C3957.7,85.3,3918,128.1,3814.6,157.1z M4074.8,148.1c-65.7,20.7-137,32.6-144,24.2
			c-4.9-5.9-0.6-8.8,13.2-8.8c72.8,0,168.3-38.5,197.9-43.9C4162.1,115.9,4119.5,134,4074.8,148.1z M4342.8,125.8
			c-19.4,14.7-102,44.2-140.1,50c-35.6,5.4-34.3,11.3-42.2,2.6c-14.6-16.1,59.4,0.3,161.8-48.7
			C4342.2,120.2,4352.8,118.2,4342.8,125.8z M4354.5,138.1c-20.4,40.4-65.3,25.6-56.1,36.7c1.7,2,4.6,3.6,6.6,3.6
			c4.7,0,18.2,7.1,18.2,9.5c0,8-28.6,12.4-45.2,6.8c-23.9-7.9-46.7-3.9-46.7,8.3c0,10.1,8.5,12.9,38.2,12.4
			c44.8-0.8,65.8,11.8,40.1,24c-10.4,4.9-8.7,9.6,4.3,12c16,3,38.8,25.3,39,38.1c0.1,3.7-4,4.1-6.2,0.6
			c-11.6-18.8-114-66.6-151.5-70.6c-27.4-3-30.5-4.7-22.3-12.9c4.2-4.2,2.8-8.3-2.7-8.3c-5.8,0-7.3-9.9,17.5-9.9
			c7.4,0,76.3-22.3,76.4-22.3C4349.7,140.6,4371.2,105.2,4354.5,138.1z M4507,152.9c0,3.4-28.2,15.1-43.5,18
			c-8.2,1.6-18.7,4-23.3,5.5c-33.9,10.6-93,14.8-97.2,7c-3.6-6.7-3.9-6.7,48.1-9.9c48.8-3,80.2-7.9,93.5-14.7
			C4495.2,153.4,4507,150.3,4507,152.9z M4510.1,237.5c0.6-1.8,4.3-3.5,8.3-3.9c15.8-1.5,54.7-11.2,58-14.4c6-5.7,1.5-6.3-10-1.3
			c-15,6.5-69.3,14.6-69.3,10.4c0-3.6,66.4-8,71-15.3c3.2-5.2-27.1,5.6-43.1,5c-8.9-0.3-9.2,0.4,0.7-2.3c4.1-1.2,14.4-3.5,23-5.2
			c18.7-3.8,20.8-7.2,2.6-4.3c-14.4,2.3-18.2,1.1-9.2-2.7c6-2.5-11.7-1.8-31.9,1.4c-11.2,1.7-10-3.9-1.2-4
			c20.9-0.1,40.4-8.2,8.7-6.2c-22.9,1.5-24.3,3.1,8.1-5.7c-3.5-0.1-18.6,0.2-18.6-3.1c0-4.8,9.9,3.5,9.9-3.7c0-3.6,2.1-4,15.5-2.8
			c58.8,5.2,79.1,34.8,35.1,51.3C4546,238.5,4508.2,243.1,4510.1,237.5z M4346.9,235.8c6.3-6,98.5,10.9,128.8,23.6
			c30.7,12.9,32.8,9.7,3.3-4.9c-18.8-9.3-104.7-34.2-114.4-33.2c-4.4,0.5-5.3-0.6-4.6-5.2c1.8-12.7-17.9-15.6,18.9-19.2
			c24.8-2.4,52-11.3,77.2-16.1c32.9-6.3,74.1-39.6,47.8-9.4c-9.7,11.1-30.4,20.7-53.2,24.6c-43.7,7.5-39.5,29.8,7.1,37.3
			c19.2,3.1,28.8,7.5,38.8,17.8c30.6,31.7,31.3,40.7,1.8,23.4C4442.2,241.6,4332.8,249.2,4346.9,235.8z M4164,230.6
			c14.2-7.6,80.4,9.5,124.4,32.1c38.2,19.7,74.5,42.3,74.5,46.4c0,11.8-67.1-57.3-184.4-67.6C4158.7,239.9,4153.8,236.1,4164,230.6z
			 M4150.6,286.7c-52.9-30.9-62.1-40.1-166.9-61.2c-11.9-2.4-24.6-3-36.1-5.9c-9.4-2.3-12.1-7-0.8-8.9c5.9-1,7.6-2.7,8.2-8.1
			c0.8-7,0.1-7.6-12.9-10.5c-24.3-5.4,33.9-6.9,130.1-33c17.5-4.7,73.2-29,81.4-35.5c11.9-9.4,14-5.2,4.4,8.9
			c-24.1,35.6-67.4,29.3-35,40.5c15.2,5.3,16.3,8.2,6.3,17.4c-9.8,8.9-22.1,11.6-31.5,6.9c-61.2-30.7-67.5,38.4-4,21.9
			c39.1-10.2,59.2,19.7,15.1,20.9c-17.9,0.5-12.5,8.3,9.6,14.1c21.3,5.5,38.8,22.3,45.6,43.2
			C4163.1,294.3,4156.4,290.1,4150.6,286.7z M3937.2,241.3c-6.2,2.4-10.8-2.9-5.8-6.7c15.1-11.6,153,17,188.3,40.3
			c3.5,2.3,24.6,11.7,24.6,16.5c0,2.6-4.4,1.1-17.8-6.2C4085.8,263.2,3957.7,233.4,3937.2,241.3z M3593.3,250
			c26.8-28.7,259.2-4.7,334.1,61c11.8,10.3,16.5,10.6,9.9,0.5c-7.4-11.3-83.4-53.6-96.3-53.6c-7.8,0-45.8-24.6-188.5-28.9
			c-79.4-2.4-32.9-8.1-32-13.8c0.8-4.8,3.2-12.2-9.7-17.1c-36.8-14,103.1-7.7,158.1-21.9c6.5-1.7,107.2-19.6,159.4-61.5
			c13-10.4,15.9-7.4,7.8,8.3c-9,17.5-26.7,29-52.5,33.9c-18.3,3.5-18.9,5.5-2.4,7.7c27.7,3.7,34.4,10.9,21.6,23.2
			c-13.2,12.7-32,16.7-48.3,10.3c-40.4-15.9-76.8-8.8-65.3,12.8c6.1,11.4,43.3,17.1,66,10.2c8.7-2.7,29.4-1.3,37.1,2.4
			c2.8,1.4,6.2,2.3,7.5,2c3.5-0.6,13.5,2.9,13.5,4.8c0,3-21,15.3-30.6,17.9c-12.1,3.3-10.8,7.2,3.5,10.9
			c46.3,11.8,59.5,58.1,56.6,59.8c-1.3,0.8-1.7,2.5-1,3.8c3,4.9-4.2,2-14.5-5.8c-35-26.5-105-49-149.1-57.8
			C3750.6,253.5,3741.8,254.5,3593.3,250z M3286.6,230.6c-16.4-0.5-22.6-5.1-9.6-7c12-1.8,12.9-15.1,1.4-20.7
			c-15.5-7.6,2.2-12.8,33.8-10c5.5,0.5,56-7,75.9-7c30.9,0,174.7-23.3,246.2-73.3c9-6.3,16.9-10.9,17.5-10.2
			c4.5,4.5-27.6,48.7-35.2,48.7c-1.4,0-6.6,2.7-11.4,6c-8.2,5.6-15,7.2-58,13.4c-15.9,2.3-18.6,8.1-3.5,7.6
			c9.7-0.3,39.3,4.5,39.3,6.4c0,11.8-57.6,27-72.8,19.1c-71.6-36.9-92.6,41.8-20.4,22.9c31.9-8.3,81.1-8.7,82.7-0.7
			c1.2,6.3-17.9,21.8-28.9,23.6c-26.2,4.2-18.9,10.9,11.8,10.9c39.3,0,71,12.6,85.1,49c12.8,33.3-0.6,25.7,0,22.4
			C3648.1,293.3,3473.6,236.6,3286.6,230.6z M3310.3,255.4c-46.4,0-48.9-0.6-43.2-9.5c2.6-4.1,23.9-1.9,27.8-1.9
			c113.8-0.7,102.8,2.9,143.6,10.2c54.6,10.2,33.7-1.1,136,35.7c6.5,2.3,43.1,12.6,43.1,22.4c0,2.9-30.1-13.8-54.1-22.4
			C3499.9,267.2,3387.8,255.4,3310.3,255.4z M2876.3,259.1c23.9-17.6,16.9-19.5,120.1-12.5c126.6,8.6,216.9,30,272.2,64.4
			c17.8,11.1,26.3,14,26.3,8.9c0-3.6-11.9-10.6-46-27c-31-14.9-36.1-16.7-74.5-26.6c-92.8-23.9-94.8-27.5-211.8-33.7
			c-31.8-1.7-57.8-3.8-57.8-4.8c0-2.1,9.2-4.7,16.8-4.7c10.6-0.1,7-9.4-4.9-12.6c-50.3-13.5,142.3-5.2,314.7-61
			c22.5-7.3,49.9-20.4,61.9-29.5c17.2-13.1,17.9-7.4,1.6,12.7c-14.7,18.2-27.6,24.5-60.6,29.7c-53.1,8.4-12.8,6.8-4.2,17.2
			c1.7,2.1,4.6,3.7,6.5,3.7c7.1,0,3,4.7-9.5,11c-16.3,8.1-37.8,8.6-59.3,1.4c-27.6-9.3-48-2.6-50.9,16.6
			c-2.6,17.3,26.9,25.3,49.3,13.3c12.4-6.6,34.2-9.1,44.7-5c27.1,10.6,29.8,14.7,17.1,25.5c-5.1,4.3-11.7,6.6-22.4,7.8
			c-27.1,3.1-18.2,8.9,13.6,8.9c51.7,0,61.1,24.9,71.5,36c7.2,7.7,19.3,36,15.4,36c-4.1,0-46.7-25.9-88.4-37.3
			C3151.2,279.4,3115.9,263.5,2876.3,259.1z M2863,186.5c17,4.3,21.5,24.5,9,40.3c-5.4,6.8-8.8,7.4-22.5,3.6
			C2821.6,222.7,2834.9,179.4,2863,186.5z"/>
		<path d="M3410.6,207.2c2-5.2,4.1-5,7.9,1.1c2.3,3.7,2.4,6.4,0.5,9.9C3413,229.3,3405.8,219.7,3410.6,207.2z"/>
		<path d="M3311.1,223.1c-2.9,0-3.9-2.6-3.9-10.1c0-12.9,5.9-12.1,7,1C3314.8,220.9,3314.1,223.1,3311.1,223.1z"/>
		<path d="M3432.9,216.9c-2.5,9.9-9.7,8.1-7.6-1.9C3429.5,194.9,3435.5,206.5,3432.9,216.9z"/>
		<path d="M3352.9,218.1c-4,0-4.9-13.8-1-16.2C3355.7,199.7,3362.7,218.1,3352.9,218.1z"/>
		<path d="M3343,216.7c-2,5.3-7.8,5-9-0.4c-1.5-7.1,0.9-15.5,4.3-15.5C3342.1,200.7,3345.1,211.1,3343,216.7z"/>
		<path d="M3320.9,208.8c-0.7-6.7,3.4-10.1,6.4-5.2c2.6,4.1,2.9,15.6,0.6,17.9C3321.4,228,3321.7,215.9,3320.9,208.8z"/>
		<path d="M3371.6,217.1c-8.3,9.9-9.4-15.1-2.3-15.1C3374.1,202,3375.6,212.3,3371.6,217.1z"/>
		<path d="M3379.3,213.2c0-7.2,1-9.9,3.7-9.9c3.8,0,5.5,14.8,2.1,18.2C3381.2,225.3,3379.3,222.5,3379.3,213.2z"/>
		<path d="M3400.7,217.1c-5.8,15-9.5-17.7-3.4-15.7C3400.8,202.5,3402.7,211.7,3400.7,217.1z"/>
		<path d="M2961.3,222.5c-3.4-1.1-4.8-11.2-1.8-13.1c3.1-1.9,8.1,5.9,6.4,10.1C2965.1,221.7,2963,223.1,2961.3,222.5z"/>
		<path d="M2932.1,215.7c0-4.8,1.3-7.5,3.6-7.5c4.9,0,7,4,5.1,10C2938.3,226,2932.1,224.2,2932.1,215.7z"/>
		<path d="M2972.4,215c1.5-15.2,9.3-4.1,6,4.5C2975.8,226.3,2971.6,223.2,2972.4,215z"/>
		<path d="M2989,220.6c-4.9,0-5.3-10.1-0.6-14.8C2990.7,203.4,2999.9,220.6,2989,220.6z"/>
		<path d="M2999.2,214.4c0-9.7,3.4-11.3,7.5-3.6c2,3.8,2,6-0.2,8.7C3001.7,225.4,2999.2,223.6,2999.2,214.4z"/>
		<path d="M2950.4,221.4c-4.4,4.4-9.5-8.2-2.1-8.2C2952,213.2,2953.4,218.4,2950.4,221.4z"/>
		<path d="M2756.6,319c10.5-2,13,3.5,4.2,9c-8.3,5.2-0.8,7.9-15.1,8.7c-10,0.6-10.1,0.5-9.3-7.5
			C2737.4,318.7,2739.4,322.2,2756.6,319z"/>
		<path d="M3023.1,216.6c-2.3,9.1-9,8.5-9-0.8c0-8.2,2.4-10.7,7.3-7.7C3023.6,209.4,3024.2,212.4,3023.1,216.6z"/>
		<path d="M2849.8,206c3.9,2.5,6.4,2.5,11.5,0.2c11.9-5.4,15.8,0.3,7,10c-6.2,6.8-18.2,5-23-3.5
			C2840.9,204.7,2842.8,201.7,2849.8,206z"/>
		<path d="M3038.2,216.6c-3,7.8-9.6,4.8-8.7-4C3031.2,195,3040.5,210.6,3038.2,216.6z"/>
		<path d="M3092.2,213.2c-4.2,0-4.8-6.4-0.8-8.9C3095.7,201.7,3102.2,213.2,3092.2,213.2z"/>
		<path d="M3052,216c-2,7.5-8.1,5.5-8.1-2.7C3043.9,196.3,3054.4,206.9,3052,216z"/>
		<path d="M3079.7,216.7c-5.1,13.3-9.3-11-2.2-11C3081.4,205.7,3082.2,210,3079.7,216.7z"/>
		<path d="M3066.2,217.1c-4.8,5.8-7.3,4.1-7.3-5.1c0-9.7,3.4-11.3,7.5-3.6C3068.4,212.2,3068.3,214.4,3066.2,217.1z"/>
		<path d="M4375,213.4c-2.2,1.4-3.9,0.6-5-2.2c-4.2-10.6,0.4-14.9,5.6-5.2C4377.7,210.2,4377.6,211.8,4375,213.4z"/>
		<path d="M4382.8,211.9c-3.2-2-3.3-11.2-0.2-11.2C4389.8,200.7,4387.6,214.9,4382.8,211.9z"/>
		<path d="M2743.7,115.1c-11.3,7.4-12.7,7.5-12.7,0.6c0.1-7.6,2.3-10.3,11.6-14C2758.2,95.3,2759,105,2743.7,115.1z"/>
		<path d="M4218.3,206.1c-2.2-2.2-2.2-3.6,0-5.8c3.8-3.8,6.6-1,4.5,4.5C4221.6,208,4220.5,208.3,4218.3,206.1z"/>
		<path d="M4398.5,212.7c-5.5-1.1-6.2-10.7-0.8-10.7C4402,202,4405.7,214.1,4398.5,212.7z"/>
		<path d="M4410.1,215.7c-3.3,0-3.3-13.2,0-11.2C4413.4,206.5,4413.3,215.7,4410.1,215.7z"/>
		<path d="M3974.6,206.9c2.1-5.4-1.4-4.4-6.6,1.9c-5.6,6.8-9.1,1.4-6.3-9.6c1.6-6.3,1.8-6.4,6.6-2c4.8,4.3,5,4.3,6.4-1
			c3.7-14.2,10.8,2.6,5.9,11.8C3977.4,213.8,3972.3,212.8,3974.6,206.9z"/>
		<path d="M4198.8,206.1c-3.7,6.8-4.8,5.7-4.7-4.7c0.1-8.6,0.3-9,3.6-4.6C4200.3,200.1,4200.6,202.7,4198.8,206.1z"/>
		<path d="M2745.7,149.8c44.4,8.2,67.8,50.6,49.4,89.7c-5.7,12.2-11.4,15.8-43.1,27.2c-18.5,6.7-19.4,6.8-18,3
			c0.6-1.7,0.4-28.3-0.6-59C2731.4,148.4,2731.7,147.3,2745.7,149.8z"/>
		<path d="M4203.9,203.2c0-2.6,1.1-5.4,2.5-6.2c3.2-2,5.9,5,4,10.1C4208.5,212.1,4203.9,209.4,4203.9,203.2z"/>
		<path d="M2763.9,116.9c-5.2,5.8-9.6,1.9-5.9-5.1c4.5-8.4,3.2-12.7-6.6-21.7c-9.6-8.8-9.2-9.7,4.1-7
			C2768.6,85.7,2773.7,106.1,2763.9,116.9z"/>
		<path d="M4631,191.4l7.2,8.1c285.7,1.8,274.7,2,279,4.1c-5.2,2.6-33.9,2.3-48,2.8c-72.5,2.6-144.3,10.9-216.8,3
			c-35.1-3.8-45-5.6-45.6-9.1C4604.2,186.6,4621.1,180.3,4631,191.4z"/>
		<path d="M3987.8,200.6c0-22.8,14.7,0.1,7.4,8.9C3990.7,215,3987.8,211.5,3987.8,200.6z"/>
		<path d="M4181.6,204.6c0-21.7,13.5-2.5,7.5,4.7C4184.1,215.4,4181.6,213.8,4181.6,204.6z"/>
		<path d="M4017.3,210.7c-8.5,0-2.2-6.8-2.2-19.2c0-5.6,7.5,0.3,7.5,10.9C4022.6,209.2,4021.7,210.7,4017.3,210.7z"/>
		<path d="M3721.4,210.1c1.6-12.6,1.8-12.9,7-10.9c3.8,1.4,3.4,12.8-0.5,19.6C3724.1,225.1,3720.1,219.8,3721.4,210.1z"/>
		<path d="M3702.6,208.2c0.2-6.2,1.6-9.9,3.6-9.9c4.9,0,6.5,4.3,4.7,12.5C3708.4,222.2,3702.1,220.3,3702.6,208.2z"/>
		<path d="M3674.9,208.2c0-6.8,1.1-9.9,3.5-9.9c4.6,0,6.8,6.4,5,13.9C3680.7,222.2,3674.9,219.5,3674.9,208.2z"/>
		<path d="M3689.8,209.4c0-10.3,6.9-17.5,7.7-8.1C3699.3,221.6,3689.8,229,3689.8,209.4z"/>
		<path d="M3762.8,214.2c-2.9,7.5-8.4,4.3-8.4-4.8C3754.3,190.4,3765.3,207.6,3762.8,214.2z"/>
		<path d="M3744.7,213.8c-8.3,21.8-10.1-16.7-4.8-15C3745.4,200.7,3747.4,206.8,3744.7,213.8z"/>
		<path d="M3294.3,203.2c6.2,0,11,16,6.3,20.7C3292.7,231.9,3290.4,203.2,3294.3,203.2z"/>
		<path d="M4029.7,209.2c-3-1.9-1.3-14.2,2.2-15.3c4.1-1.4,6.5,9,3,13.1C4033.3,209,4031,210,4029.7,209.2z"/>
		<path d="M4000.9,199.4c0.2-11.2,2.9-13.3,7.6-5.8c1.3,2.1,1.7,6.8,0.8,10.4C4006.4,215.4,4000.7,212.2,4000.9,199.4z"/>
		<path d="M3645.1,206.8c0-11.3,1.7-13.3,7-8.1C3661,207.7,3645.1,235.5,3645.1,206.8z"/>
		<path d="M3660,208c0-10.7,0.7-12.5,4.3-11.8C3678.4,198.9,3660,240.7,3660,208z"/>
		<path d="M3632.5,220.6c-2.5,0-5.6-19-3.6-22.3c4.9-7.9,12.2,7.4,8,16.7C3635.5,218.1,3633.5,220.6,3632.5,220.6z"/>
	</g>
</g>
</svg>
