<?xml version="1.0" encoding="utf-8"?>
<!-- Svg Vector Icons : http://www.onlinewebfonts.com/icon -->
<!DOCTYPE svg PUBLIC "-//W3C//DTD SVG 1.1//EN" "http://www.w3.org/Graphics/SVG/1.1/DTD/svg11.dtd">
<svg version="1.1" xmlns="http://www.w3.org/2000/svg" xmlns:xlink="http://www.w3.org/1999/xlink" x="0px" y="0px" viewBox="0 0 1000 1000" enable-background="new 0 0 1000 1000" xml:space="preserve">
<metadata> Svg Vector Icons : http://www.onlinewebfonts.com/icon </metadata>
<g><g transform="translate(0.000000,469.000000) scale(0.100000,-0.100000)"><path d="M5385.6,4190.6c-142.6-19.3-290.9-107.9-366-215.7c-121.4-179.2-129.1-414.1-25-674.2c30.8-79,57.8-179.2,57.8-221.5c0-69.4-5.8-77.1-55.8-86.7c-36.6-7.7-59.7-27-67.4-57.8c-27-109.8-317.8-236.9-810.9-350.6c-169.5-38.5-333.2-84.8-366-100.2c-82.8-42.4-547.1-502.7-847.5-841.8c-308.2-342.9-310.1-350.6-229.2-608.7c15.4-48.2,38.5-152.2,53.9-231.1c36.6-183,154.1-533.6,196.5-581.7c38.5-42.4,100.2-44.3,154.1-7.7c21.2,15.4,94.4,34.7,163.7,40.5c80.9,9.6,165.7,34.7,248.5,77.1c152.2,77.1,269.7,104,269.7,63.6c0-48.2,67.4-92.5,192.6-131c144.5-44.3,173.4-65.5,173.4-134.8c0-42.4,21.2-69.4,102.1-129.1c53.9-40.4,117.5-73.2,138.7-73.2c57.8-1.9,235-104,346.7-204.2c119.4-105.9,296.6-208,477.7-277.4c131-48.2,302.4-65.5,302.4-28.9c0,11.6,25.1,19.3,54,19.3c55.9,0,173.4,73.2,242.7,152.2c21.2,21.2,52,40.5,69.3,40.5c28.9,0,242.7,202.3,323.6,308.2c67.4,86.7,173.4,296.6,206.1,404.5c15.4,57.8,38.5,221.5,48.2,362.1c13.5,186.8,30.8,281.2,63.6,360.2l42.4,105.9l260,9.6c161.8,5.8,344.8,27,481.6,55.8l221.5,44.3l125.2-46.2c296.6-113.7,329.4-111.7,404.5,7.7c32.8,50.1,73.2,136.8,90.6,192.6c25,82.8,40.4,102.1,73.2,102.1c23.1,0,188.8,27,367.9,59.7c179.2,32.7,391,63.6,471.9,69.4c142.6,11.6,146.4,9.6,240.8-55.9c125.2-90.5,327.5-188.8,387.2-188.8c111.7,0,181,100.2,219.6,315.9c36.6,215.7-3.8,242.7-362.1,242.7c-121.4,0-217.7,9.6-242.7,23.1c-23.1,13.5-127.2,25-235,27c-105.9,1.9-321.7,27-477.7,53.9c-158,27-310.1,50.1-342.9,50.1c-30.8,0-73.2,17.3-94.4,38.5c-36.6,36.6-63.5,38.5-404.5,38.5c-319.7,0-377.5,3.9-462.3,38.5c-63.5,25-142.5,38.5-227.3,38.5c-163.7,0-242.7,23.1-335.2,96.3c-144.5,115.6-252.3,156-454.6,167.6c-177.2,11.6-190.7,13.5-260,75.1c-38.5,36.6-80.9,65.5-90.6,65.5c-42.4,0-15.4,34.7,36.6,44.3c59.7,11.5,86.7,61.6,109.8,196.5c15.4,90.5,36.6,123.3,100.2,146.4c36.6,13.5,44.3,27,32.7,61.6c-30.8,105.9-32.7,206.1-1.9,294.7c44.3,129.1,38.5,250.4-15.4,366C6029,4084.7,5724.6,4238.8,5385.6,4190.6z"/><path d="M3913.9-185.8c-57.8-46.2-208-167.6-337.1-269.7c-127.1-102.1-260-213.8-290.9-250.4c-52-59.7-57.8-77.1-50.1-156c11.5-86.7,7.7-90.5-132.9-256.2c-79-94.4-250.4-304.3-381.4-468.1c-387.2-481.6-429.5-522-597.1-549c-48.2-7.7-107.9-25-134.8-38.5c-27-13.5-156-140.6-288.9-281.2c-132.9-142.5-342.9-337.1-471.9-439.2c-391-310.1-886.1-739.7-891.8-774.3c-3.9-19.3-36.6-55.9-73.2-84.8c-63.6-48.2-65.5-55.9-65.5-175.3c0-90.5-11.6-148.3-42.4-206.1c-28.9-59.7-42.4-127.1-48.2-254.3l-7.7-173.4l265.8-131c229.2-113.7,277.4-131,350.6-125.2c79,5.8,88.6,11.5,102.1,69.3c13.5,48.2,5.8,102.1-25,208c-23.1,79-38.5,146.4-32.7,152.2c3.8,5.8,57.8-17.3,117.5-48.2c117.5-65.5,342.9-115.6,508.5-115.6h105.9l186.8,165.7c102.1,90.5,208,186.8,236.9,211.9c28.9,27,121.3,136.8,204.2,244.6c236.9,306.3,306.3,366,591.4,508.5c377.5,188.8,529.7,298.6,762.8,549c244.6,260,300.5,302.4,560.5,408.3c109.8,46.2,279.3,123.3,379.5,173.4c98.2,50.1,181.1,88.6,184.9,84.8c1.9-3.9,23.1-42.4,46.2-86.7c23.1-46.2,48.2-82.8,55.9-82.8c9.6,0,98.2,32.8,198.4,73.2l181.1,73.2l-9.6,154.1c-5.8,82.8-9.6,248.5-9.6,364.1c0,198.4,5.8,229.2,82.8,460.4c53.9,159.9,79,265.8,71.3,296.7c-21.2,82.8-181.1,221.5-327.4,281.2c-412.2,169.5-527.8,236.9-703.1,406.4L4018-101L3913.9-185.8z"/><path d="M5751.6-625c-15.4-15.4-5.8-55.8,34.7-144.5c127.1-281.2,140.6-377.5,142.5-1045.9v-606.8l96.3-59.7c53.9-34.7,213.8-125.2,356.3-202.3c142.6-77.1,283.2-156,312.1-177.2c80.9-55.9,144.5-215.8,236.9-601c46.2-194.5,119.5-443,161.8-552.8c40.4-109.8,84.8-235,96.3-277.4l19.3-77.1l105.9,5.8l105.9,7.7l-21.2-73.2c-28.9-105.9,7.7-210,84.8-250.4c82.8-42.4,491.2-27,747.4,28.9c152.2,32.7,225.4,38.5,443,28.9c173.4-7.7,308.2-1.9,404.5,15.4l144.5,25l5.8,71.3c5.8,69.3,3.8,71.3-67.4,82.8c-221.5,34.7-294.7,55.9-483.5,142.5c-113.7,52-225.4,100.2-246.6,105.9c-34.7,9.6-42.4,28.9-42.4,105.9c-5.8,200.3-144.5,810.9-277.4,1205.8c-100.2,300.5-354.4,940-414.1,1044c-75.1,129-252.3,277.4-435.3,367.9c-204.2,102.1-456.5,265.8-649.2,423.8c-183,152.2-273.5,194.5-473.8,219.6c-125.2,17.3-161.8,28.9-161.8,52c0,17.3-17.3,59.7-38.5,94.4c-30.8,50.1-50.1,61.7-102.1,61.7C5801.7-603.8,5763.1-613.4,5751.6-625z"/><path d="M5526.2-929.3c-21.2-23.1-71.3-46.2-111.7-53.9c-57.8-7.7-80.9-25-104-67.4c-48.2-94.4-84.8-302.4-84.8-495c0-200.3,36.6-618.3,55.9-620.3c5.8,0,59.7-3.8,117.5-7.7c59.7-1.9,140.6-19.3,181.1-36.6c42.4-17.3,79-27,82.8-23.1c3.8,3.9,17.3,198.4,30.8,429.6c23.1,477.7,9.6,614.5-79,805.2l-52,109.8L5526.2-929.3z"/></g></g>
</svg>